<svg xmlns="http://www.w3.org/2000/svg" viewBox="0 0 87 24" fill="none" data-bubblesppbfhhgcdehhbjigifndnfmcihegokbbprevent-events-conflict-installed="true">
  <path d="M35.266 18V7.668H31.378V5.994H41.134V7.668H37.246V18H35.266ZM44.5904 18.27C44.1224 18.27 43.6724 18.222 43.2404 18.126C42.8084 18.042 42.4124 17.892 42.0524 17.676C41.7044 17.46 41.4224 17.166 41.2064 16.794C41.0024 16.41 40.9004 15.936 40.9004 15.372C40.9004 14.7 41.0324 14.148 41.2964 13.716C41.5604 13.284 41.9384 12.96 42.4304 12.744C42.9224 12.528 43.5104 12.42 44.1944 12.42C44.6504 12.42 45.0584 12.456 45.4184 12.528C45.7904 12.6 46.1204 12.702 46.4084 12.834C46.7084 12.954 46.9604 13.092 47.1644 13.248L47.3624 14.49C47.0984 14.31 46.7444 14.16 46.3004 14.04C45.8564 13.908 45.3764 13.842 44.8604 13.842C44.1764 13.842 43.6544 13.962 43.2944 14.202C42.9464 14.442 42.7724 14.802 42.7724 15.282C42.7724 15.642 42.8744 15.936 43.0784 16.164C43.2824 16.38 43.5344 16.542 43.8344 16.65C44.1464 16.746 44.4704 16.794 44.8064 16.794C45.5144 16.794 46.0364 16.746 46.3724 16.65C46.7084 16.554 46.8764 16.332 46.8764 15.984V12.204C46.8764 11.568 46.6844 11.106 46.3004 10.818C45.9164 10.518 45.3704 10.368 44.6624 10.368C44.1584 10.368 43.6364 10.452 43.0964 10.62C42.5564 10.776 42.1124 10.998 41.7644 11.286V9.522C42.1004 9.294 42.5864 9.114 43.2224 8.982C43.8704 8.838 44.5364 8.766 45.2204 8.766C45.5564 8.766 45.8924 8.802 46.2284 8.874C46.5764 8.934 46.9004 9.036 47.2004 9.18C47.5004 9.312 47.7644 9.498 47.9924 9.738C48.2324 9.966 48.4184 10.248 48.5504 10.584C48.6824 10.92 48.7484 11.316 48.7484 11.772V16.092C48.7484 16.68 48.5624 17.136 48.1904 17.46C47.8304 17.772 47.3384 17.982 46.7144 18.09C46.0904 18.21 45.3824 18.27 44.5904 18.27ZM55.5263 18.252C55.2983 18.252 55.0163 18.222 54.6803 18.162C54.3443 18.114 54.0083 18.036 53.6723 17.928C53.3363 17.808 53.0423 17.652 52.7903 17.46L53.2763 16.848V21.618H51.4043V10.71C51.4043 10.338 51.5183 10.026 51.7463 9.774C51.9863 9.522 52.2983 9.324 52.6823 9.18C53.0663 9.024 53.4863 8.916 53.9423 8.856C54.4103 8.784 54.8723 8.748 55.3283 8.748C56.1323 8.748 56.8643 8.898 57.5243 9.198C58.1843 9.498 58.7123 10.008 59.1083 10.728C59.5043 11.436 59.7023 12.408 59.7023 13.644C59.7023 14.58 59.5403 15.396 59.2163 16.092C58.8923 16.776 58.4183 17.31 57.7943 17.694C57.1703 18.066 56.4143 18.252 55.5263 18.252ZM55.1843 16.668C55.7603 16.668 56.2403 16.548 56.6243 16.308C57.0083 16.068 57.2963 15.72 57.4883 15.264C57.6803 14.808 57.7763 14.256 57.7763 13.608C57.7763 13.008 57.7043 12.462 57.5603 11.97C57.4283 11.478 57.1823 11.094 56.8223 10.818C56.4623 10.53 55.9463 10.386 55.2743 10.386C54.6743 10.386 54.1883 10.452 53.8163 10.584C53.4563 10.704 53.2763 10.884 53.2763 11.124V16.146C53.5883 16.314 53.9063 16.446 54.2303 16.542C54.5543 16.626 54.8723 16.668 55.1843 16.668ZM63.7528 18H61.8808V5.544H63.7528V18ZM66.47 18V9.018H68.36L68.378 18H66.47ZM66.416 7.524V5.814H68.432V7.524H66.416ZM74.9618 18.27C73.4978 18.27 72.4058 17.856 71.6858 17.028C70.9778 16.2 70.6238 15.018 70.6238 13.482C70.6238 11.85 70.9898 10.656 71.7218 9.9C72.4658 9.132 73.5338 8.748 74.9258 8.748C75.9218 8.748 76.7438 8.934 77.3918 9.306C78.0398 9.666 78.5198 10.2 78.8318 10.908C79.1438 11.616 79.2998 12.474 79.2998 13.482C79.2998 15.006 78.9218 16.188 78.1658 17.028C77.4218 17.856 76.3538 18.27 74.9618 18.27ZM74.9438 16.668C75.5558 16.668 76.0418 16.536 76.4018 16.272C76.7618 15.996 77.0198 15.618 77.1758 15.138C77.3438 14.658 77.4278 14.106 77.4278 13.482C77.4278 12.786 77.3438 12.204 77.1758 11.736C77.0078 11.268 76.7438 10.92 76.3838 10.692C76.0238 10.452 75.5438 10.332 74.9438 10.332C74.3438 10.332 73.8638 10.458 73.5038 10.71C73.1438 10.962 72.8858 11.322 72.7298 11.79C72.5738 12.258 72.4958 12.822 72.4958 13.482C72.4958 14.478 72.6818 15.258 73.0538 15.822C73.4258 16.386 74.0558 16.668 74.9438 16.668Z" fill="#3D41A6"/>
  <path d="M21.0234 11.6797C21.0234 16.8401 16.8401 21.0234 11.6797 21.0234C6.51926 21.0234 2.33594 16.8401 2.33594 11.6797C2.33594 6.51926 6.51926 2.33594 11.6797 2.33594C16.8401 2.33594 21.0234 6.51926 21.0234 11.6797Z" fill="#38A1D6"/>
  <path d="M11.6797 23.3594C5.22925 23.3594 0 18.1301 0 11.6797C0 5.22925 5.22925 0 11.6797 0C18.1301 0 23.3594 5.22925 23.3594 11.6797C23.3521 18.1271 18.1271 23.3521 11.6797 23.3594ZM11.6797 0.778646C5.65925 0.778646 0.778646 5.65925 0.778646 11.6797C0.778646 17.7001 5.65925 22.5807 11.6797 22.5807C17.7001 22.5807 22.5807 17.7001 22.5807 11.6797C22.5739 5.6621 17.6973 0.785489 11.6797 0.778646Z" fill="#3D41A6"/>
  <path d="M17.1305 11.6795C17.1305 14.6897 14.6902 17.13 11.68 17.13C8.66979 17.13 6.22949 14.6897 6.22949 11.6795C6.22949 8.66931 8.66979 6.229 11.68 6.229C14.6902 6.229 17.1305 8.66931 17.1305 11.6795Z" fill="#3D41A6"/>
</svg>